<?xml version="1.0" encoding="UTF-8"?><svg xmlns="http://www.w3.org/2000/svg" xmlns:xlink="http://www.w3.org/1999/xlink" fill-opacity="1" color-rendering="auto" color-interpolation="auto" text-rendering="auto" stroke="black" stroke-linecap="square" width="961" stroke-miterlimit="10" shape-rendering="auto" stroke-opacity="1" fill="black" stroke-dasharray="none" font-weight="normal" stroke-width="1" height="351" font-family="'Dialog'" font-style="normal" stroke-linejoin="miter" font-size="12px" stroke-dashoffset="0" image-rendering="auto">
  <!--Generated by ySVG 2.5-->
  <defs id="genericDefs"/>
  <g>
    <defs id="defs1">
      <linearGradient x1="58" gradientUnits="userSpaceOnUse" x2="179" y1="240.75" y2="315.75" id="linearGradient1" spreadMethod="reflect">
        <stop stop-opacity="1" stop-color="rgb(232,238,247)" offset="0%"/>
        <stop stop-opacity="1" stop-color="rgb(183,201,227)" offset="100%"/>
      </linearGradient>
      <linearGradient x1="295" gradientUnits="userSpaceOnUse" x2="448" y1="251.5" y2="305" id="linearGradient2" spreadMethod="reflect">
        <stop stop-opacity="1" stop-color="rgb(232,238,247)" offset="0%"/>
        <stop stop-opacity="1" stop-color="rgb(183,201,227)" offset="100%"/>
      </linearGradient>
      <linearGradient x1="622" gradientUnits="userSpaceOnUse" x2="775" y1="251.5" y2="305" id="linearGradient3" spreadMethod="reflect">
        <stop stop-opacity="1" stop-color="rgb(232,238,247)" offset="0%"/>
        <stop stop-opacity="1" stop-color="rgb(183,201,227)" offset="100%"/>
      </linearGradient>
      <linearGradient x1="485" gradientUnits="userSpaceOnUse" x2="606" y1="409.749" y2="463.249" id="linearGradient4" spreadMethod="reflect">
        <stop stop-opacity="1" stop-color="rgb(232,238,247)" offset="0%"/>
        <stop stop-opacity="1" stop-color="rgb(183,201,227)" offset="100%"/>
      </linearGradient>
      <linearGradient x1="783" gradientUnits="userSpaceOnUse" x2="904" y1="418.749" y2="472.249" id="linearGradient5" spreadMethod="reflect">
        <stop stop-opacity="1" stop-color="rgb(232,238,247)" offset="0%"/>
        <stop stop-opacity="1" stop-color="rgb(183,201,227)" offset="100%"/>
      </linearGradient>
      <clipPath clipPathUnits="userSpaceOnUse" id="clipPath1">
        <path d="M0 0 L961 0 L961 351 L0 351 L0 0 Z"/>
      </clipPath>
      <clipPath clipPathUnits="userSpaceOnUse" id="clipPath2">
        <path d="M-22 165 L939 165 L939 516 L-22 516 L-22 165 Z"/>
      </clipPath>
      <clipPath clipPathUnits="userSpaceOnUse" id="clipPath3">
        <path d="M-26 161 L935 161 L935 512 L-26 512 L-26 161 Z"/>
      </clipPath>
    </defs>
    <g fill="white" text-rendering="geometricPrecision" shape-rendering="geometricPrecision" transform="translate(22,-165)" stroke="white">
      <rect x="-22" width="961" height="351" y="165" clip-path="url(#clipPath2)" stroke="none"/>
    </g>
    <g fill="rgb(210,210,210)" text-rendering="geometricPrecision" shape-rendering="geometricPrecision" transform="matrix(1,0,0,1,22,-165) translate(4,4)" stroke="rgb(210,210,210)">
      <rect x="-7" width="257" height="151.666" y="180.417" clip-path="url(#clipPath3)" stroke="none"/>
    </g>
    <g fill="rgb(242,240,216)" text-rendering="geometricPrecision" shape-rendering="geometricPrecision" transform="matrix(1,0,0,1,22,-165)" stroke="rgb(242,240,216)">
      <rect x="-7" width="257" height="151.666" y="180.417" clip-path="url(#clipPath2)" stroke="none"/>
      <rect x="-7" y="180.417" clip-path="url(#clipPath2)" fill="rgb(183,182,158)" width="257" height="21.666" stroke="none"/>
    </g>
    <g font-size="15px" stroke-linecap="butt" transform="matrix(1,0,0,1,22,-165)" text-rendering="geometricPrecision" font-family="sans-serif" shape-rendering="geometricPrecision" stroke-miterlimit="1.45">
      <text x="37.1577" xml:space="preserve" y="196.9189" clip-path="url(#clipPath2)" stroke="none">Rutgers Cyber-Infrastructure</text>
      <rect fill="none" x="-7" width="257" height="151.666" y="180.417" clip-path="url(#clipPath2)"/>
    </g>
    <g fill="url(#linearGradient1)" text-rendering="geometricPrecision" shape-rendering="geometricPrecision" transform="matrix(1,0,0,1,22,-165)" stroke="url(#linearGradient1)">
      <path d="M58 255.75 C61.63 240.75 175.37 240.75 179 255.75 L179 300.75 C175.37 315.75 61.63 315.75 58 300.75 Z" stroke="none" clip-path="url(#clipPath2)"/>
    </g>
    <g text-rendering="geometricPrecision" stroke-miterlimit="1.45" shape-rendering="geometricPrecision" transform="matrix(1,0,0,1,22,-165)" stroke-linecap="butt">
      <path fill="none" d="M58 255.75 C61.63 240.75 175.37 240.75 179 255.75 L179 300.75 C175.37 315.75 61.63 315.75 58 300.75 Z" clip-path="url(#clipPath2)"/>
      <path fill="none" d="M179 255.75 C175.37 270.75 61.63 270.75 58 255.75" clip-path="url(#clipPath2)"/>
      <text x="116.6016" xml:space="preserve" y="268.6523" clip-path="url(#clipPath2)" font-family="sans-serif" stroke="none"> </text>
      <text x="96.5303" xml:space="preserve" y="282.7852" clip-path="url(#clipPath2)" font-family="sans-serif" stroke="none">CamHD</text>
      <text x="102.3105" xml:space="preserve" y="296.918" clip-path="url(#clipPath2)" font-family="sans-serif" stroke="none"> .mov</text>
    </g>
    <g fill="rgb(210,210,210)" text-rendering="geometricPrecision" shape-rendering="geometricPrecision" transform="matrix(1,0,0,1,22,-165) translate(4,4)" stroke="rgb(210,210,210)">
      <rect x="280" width="640" height="151.666" y="180.417" clip-path="url(#clipPath3)" stroke="none"/>
    </g>
    <g fill="rgb(242,240,216)" text-rendering="geometricPrecision" shape-rendering="geometricPrecision" transform="matrix(1,0,0,1,22,-165)" stroke="rgb(242,240,216)">
      <rect x="280" width="640" height="151.666" y="180.417" clip-path="url(#clipPath2)" stroke="none"/>
      <rect x="280" y="180.417" clip-path="url(#clipPath2)" fill="rgb(183,182,158)" width="640" height="21.666" stroke="none"/>
    </g>
    <g font-size="15px" stroke-linecap="butt" transform="matrix(1,0,0,1,22,-165)" text-rendering="geometricPrecision" font-family="sans-serif" shape-rendering="geometricPrecision" stroke-miterlimit="1.45">
      <text x="775.2656" xml:space="preserve" y="196.9189" clip-path="url(#clipPath2)" stroke="none">Google Cloud / APL</text>
      <rect fill="none" x="280" width="640" height="151.666" y="180.417" clip-path="url(#clipPath2)"/>
    </g>
    <g fill="url(#linearGradient2)" text-rendering="geometricPrecision" shape-rendering="geometricPrecision" transform="matrix(1,0,0,1,22,-165)" stroke="url(#linearGradient2)">
      <path d="M295 251.5 L448 251.5 L448 305 L295 305 Z" stroke="none" clip-path="url(#clipPath2)"/>
    </g>
    <g text-rendering="geometricPrecision" stroke-miterlimit="1.45" shape-rendering="geometricPrecision" transform="matrix(1,0,0,1,22,-165)" stroke-linecap="butt">
      <path fill="none" d="M295 251.5 L448 251.5 L448 305 L295 305 Z" clip-path="url(#clipPath2)"/>
      <text x="301.9873" xml:space="preserve" y="282.7852" clip-path="url(#clipPath2)" font-family="sans-serif" stroke="none">CamHD motion analysis</text>
    </g>
    <g fill="url(#linearGradient3)" text-rendering="geometricPrecision" shape-rendering="geometricPrecision" transform="matrix(1,0,0,1,22,-165)" stroke="url(#linearGradient3)">
      <path d="M622 251.5 L775 251.5 L775 305 L622 305 Z" stroke="none" clip-path="url(#clipPath2)"/>
    </g>
    <g text-rendering="geometricPrecision" stroke-miterlimit="1.45" shape-rendering="geometricPrecision" transform="matrix(1,0,0,1,22,-165)" stroke-linecap="butt">
      <path fill="none" d="M622 251.5 L775 251.5 L775 305 L622 305 Z" clip-path="url(#clipPath2)"/>
      <text x="633.9619" xml:space="preserve" y="275.7188" clip-path="url(#clipPath2)" font-family="sans-serif" stroke="none">Static region analysis/</text>
      <text x="673.665" xml:space="preserve" y="289.8516" clip-path="url(#clipPath2)" font-family="sans-serif" stroke="none">labelling</text>
    </g>
    <g text-rendering="geometricPrecision" stroke-miterlimit="1.45" shape-rendering="geometricPrecision" transform="matrix(1,0,0,1,22,-165)" stroke-linecap="butt">
      <path fill="none" d="M178.983 278.25 L240 278.25 L289 278.25 L295.0022 278.25" clip-path="url(#clipPath2)"/>
      <path d="M295.0022 278.25 L283.0022 273.25 L286.0022 278.25 L283.0022 283.25 Z" clip-path="url(#clipPath2)" stroke="none"/>
    </g>
    <g fill="rgb(210,210,210)" text-rendering="geometricPrecision" shape-rendering="geometricPrecision" transform="matrix(1,0,0,1,22,-165) translate(4,4)" stroke="rgb(210,210,210)">
      <rect x="280" width="640" height="134.166" y="362.083" clip-path="url(#clipPath3)" stroke="none"/>
    </g>
    <g fill="rgb(242,240,216)" text-rendering="geometricPrecision" shape-rendering="geometricPrecision" transform="matrix(1,0,0,1,22,-165)" stroke="rgb(242,240,216)">
      <rect x="280" width="640" height="134.166" y="362.083" clip-path="url(#clipPath2)" stroke="none"/>
      <rect x="280" y="362.083" clip-path="url(#clipPath2)" fill="rgb(183,182,158)" width="640" height="21.666" stroke="none"/>
    </g>
    <g font-size="15px" stroke-linecap="butt" transform="matrix(1,0,0,1,22,-165)" text-rendering="geometricPrecision" font-family="sans-serif" shape-rendering="geometricPrecision" stroke-miterlimit="1.45">
      <text x="869.1548" xml:space="preserve" y="378.585" clip-path="url(#clipPath2)" stroke="none">Github</text>
      <rect fill="none" x="280" width="640" height="134.166" y="362.083" clip-path="url(#clipPath2)"/>
    </g>
    <g fill="url(#linearGradient4)" text-rendering="geometricPrecision" shape-rendering="geometricPrecision" transform="matrix(1,0,0,1,22,-165)" stroke="url(#linearGradient4)">
      <path d="M498.6425 409.749 L606 409.749 L592.3575 463.249 L485 463.249 Z" stroke="none" clip-path="url(#clipPath2)"/>
    </g>
    <g text-rendering="geometricPrecision" stroke-miterlimit="1.45" shape-rendering="geometricPrecision" transform="matrix(1,0,0,1,22,-165)" stroke-linecap="butt">
      <path fill="none" d="M498.6425 409.749 L606 409.749 L592.3575 463.249 L485 463.249 Z" clip-path="url(#clipPath2)"/>
      <text x="509.8047" xml:space="preserve" y="433.9678" clip-path="url(#clipPath2)" font-family="sans-serif" stroke="none">Optical Flow</text>
      <text x="531.3086" xml:space="preserve" y="448.1006" clip-path="url(#clipPath2)" font-family="sans-serif" stroke="none">.json</text>
    </g>
    <g fill="url(#linearGradient5)" text-rendering="geometricPrecision" shape-rendering="geometricPrecision" transform="matrix(1,0,0,1,22,-165)" stroke="url(#linearGradient5)">
      <path d="M796.6425 418.749 L904 418.749 L890.3575 472.249 L783 472.249 Z" stroke="none" clip-path="url(#clipPath2)"/>
    </g>
    <g text-rendering="geometricPrecision" stroke-miterlimit="1.45" shape-rendering="geometricPrecision" transform="matrix(1,0,0,1,22,-165)" stroke-linecap="butt">
      <path fill="none" d="M796.6425 418.749 L904 418.749 L890.3575 472.249 L783 472.249 Z" clip-path="url(#clipPath2)"/>
      <text x="820.4199" xml:space="preserve" y="442.9678" clip-path="url(#clipPath2)" font-family="sans-serif" stroke="none">Regions</text>
      <text x="829.3086" xml:space="preserve" y="457.1006" clip-path="url(#clipPath2)" font-family="sans-serif" stroke="none">.json</text>
    </g>
    <g text-rendering="geometricPrecision" stroke-miterlimit="1.45" shape-rendering="geometricPrecision" transform="matrix(1,0,0,1,22,-165)" stroke-linecap="butt">
      <path fill="none" d="M400.9177 305.0048 L510.178 404.3745" clip-path="url(#clipPath2)"/>
      <path d="M516.0964 409.7571 L510.583 397.9842 L509.4382 403.7017 L503.8547 405.3822 Z" clip-path="url(#clipPath2)" stroke="none"/>
      <path fill="none" d="M571.3673 409.7443 L667.0845 310.7433" clip-path="url(#clipPath2)"/>
      <path d="M672.6451 304.9919 L660.7095 310.1436 L666.3894 311.4622 L667.8988 317.0945 Z" clip-path="url(#clipPath2)" stroke="none"/>
      <path fill="none" d="M721.705 305.0156 L815.0958 412.7365" clip-path="url(#clipPath2)"/>
      <path d="M820.3364 418.7811 L816.2534 406.4389 L814.4408 411.981 L808.6977 412.9896 Z" clip-path="url(#clipPath2)" stroke="none"/>
    </g>
  </g>
</svg>
