<?xml version="1.0" encoding="UTF-8"?><svg xmlns="http://www.w3.org/2000/svg" xmlns:xlink="http://www.w3.org/1999/xlink" fill-opacity="1" color-rendering="auto" color-interpolation="auto" text-rendering="auto" stroke="black" stroke-linecap="square" width="1436" stroke-miterlimit="10" shape-rendering="auto" stroke-opacity="1" fill="black" stroke-dasharray="none" font-weight="normal" stroke-width="1" height="904" font-family="'Dialog'" font-style="normal" stroke-linejoin="miter" font-size="12px" stroke-dashoffset="0" image-rendering="auto">
  <!--Generated by ySVG 2.5-->
  <defs id="genericDefs"/>
  <g>
    <defs id="defs1">
      <linearGradient x1="-47" gradientUnits="userSpaceOnUse" x2="74" y1="172.25" y2="247.25" id="linearGradient1" spreadMethod="reflect">
        <stop stop-opacity="1" stop-color="rgb(232,238,247)" offset="0%"/>
        <stop stop-opacity="1" stop-color="rgb(183,201,227)" offset="100%"/>
      </linearGradient>
      <linearGradient x1="296.75" gradientUnits="userSpaceOnUse" x2="449.75" y1="398.4585" y2="451.9585" id="linearGradient2" spreadMethod="reflect">
        <stop stop-opacity="1" stop-color="rgb(232,238,247)" offset="0%"/>
        <stop stop-opacity="1" stop-color="rgb(183,201,227)" offset="100%"/>
      </linearGradient>
      <linearGradient x1="294.25" gradientUnits="userSpaceOnUse" x2="447.25" y1="231" y2="284.5" id="linearGradient3" spreadMethod="reflect">
        <stop stop-opacity="1" stop-color="rgb(232,238,247)" offset="0%"/>
        <stop stop-opacity="1" stop-color="rgb(183,201,227)" offset="100%"/>
      </linearGradient>
      <linearGradient x1="614.5" gradientUnits="userSpaceOnUse" x2="735.5" y1="593.166" y2="646.666" id="linearGradient4" spreadMethod="reflect">
        <stop stop-opacity="1" stop-color="rgb(232,238,247)" offset="0%"/>
        <stop stop-opacity="1" stop-color="rgb(183,201,227)" offset="100%"/>
      </linearGradient>
      <linearGradient x1="970.4504" gradientUnits="userSpaceOnUse" x2="1091.4504" y1="593.166" y2="646.666" id="linearGradient5" spreadMethod="reflect">
        <stop stop-opacity="1" stop-color="rgb(232,238,247)" offset="0%"/>
        <stop stop-opacity="1" stop-color="rgb(183,201,227)" offset="100%"/>
      </linearGradient>
      <linearGradient x1="1147.9009" gradientUnits="userSpaceOnUse" x2="1268.9009" y1="593.166" y2="646.666" id="linearGradient6" spreadMethod="reflect">
        <stop stop-opacity="1" stop-color="rgb(232,238,247)" offset="0%"/>
        <stop stop-opacity="1" stop-color="rgb(183,201,227)" offset="100%"/>
      </linearGradient>
      <linearGradient x1="-60" gradientUnits="userSpaceOnUse" x2="87" y1="398.4585" y2="457.7085" id="linearGradient7" spreadMethod="reflect">
        <stop stop-opacity="1" stop-color="rgb(232,238,247)" offset="0%"/>
        <stop stop-opacity="1" stop-color="rgb(183,201,227)" offset="100%"/>
      </linearGradient>
      <linearGradient x1="-60" gradientUnits="userSpaceOnUse" x2="93" y1="304.2708" y2="357.7708" id="linearGradient8" spreadMethod="reflect">
        <stop stop-opacity="1" stop-color="rgb(232,238,247)" offset="0%"/>
        <stop stop-opacity="1" stop-color="rgb(183,201,227)" offset="100%"/>
      </linearGradient>
      <linearGradient x1="1041.5" gradientUnits="userSpaceOnUse" x2="1194.5" y1="420.5" y2="474" id="linearGradient9" spreadMethod="reflect">
        <stop stop-opacity="1" stop-color="rgb(232,238,247)" offset="0%"/>
        <stop stop-opacity="1" stop-color="rgb(183,201,227)" offset="100%"/>
      </linearGradient>
      <linearGradient x1="888.5" gradientUnits="userSpaceOnUse" x2="1041.5" y1="420.5" y2="474" id="linearGradient10" spreadMethod="reflect">
        <stop stop-opacity="1" stop-color="rgb(232,238,247)" offset="0%"/>
        <stop stop-opacity="1" stop-color="rgb(183,201,227)" offset="100%"/>
      </linearGradient>
      <linearGradient x1="1093" gradientUnits="userSpaceOnUse" x2="1246" y1="782.415" y2="835.915" id="linearGradient11" spreadMethod="reflect">
        <stop stop-opacity="1" stop-color="rgb(232,238,247)" offset="0%"/>
        <stop stop-opacity="1" stop-color="rgb(183,201,227)" offset="100%"/>
      </linearGradient>
      <linearGradient x1="868" gradientUnits="userSpaceOnUse" x2="1021" y1="782.415" y2="835.915" id="linearGradient12" spreadMethod="reflect">
        <stop stop-opacity="1" stop-color="rgb(232,238,247)" offset="0%"/>
        <stop stop-opacity="1" stop-color="rgb(183,201,227)" offset="100%"/>
      </linearGradient>
      <linearGradient x1="884" gradientUnits="userSpaceOnUse" x2="1005" y1="931.498" y2="984.998" id="linearGradient13" spreadMethod="reflect">
        <stop stop-opacity="1" stop-color="rgb(232,238,247)" offset="0%"/>
        <stop stop-opacity="1" stop-color="rgb(183,201,227)" offset="100%"/>
      </linearGradient>
      <clipPath clipPathUnits="userSpaceOnUse" id="clipPath1">
        <path d="M0 0 L1436 0 L1436 904 L0 904 L0 0 Z"/>
      </clipPath>
      <clipPath clipPathUnits="userSpaceOnUse" id="clipPath2">
        <path d="M-127 96 L1309 96 L1309 1000 L-127 1000 L-127 96 Z"/>
      </clipPath>
      <clipPath clipPathUnits="userSpaceOnUse" id="clipPath3">
        <path d="M-131 92 L1305 92 L1305 996 L-131 996 L-131 92 Z"/>
      </clipPath>
    </defs>
    <g fill="white" text-rendering="geometricPrecision" shape-rendering="geometricPrecision" transform="translate(127,-96)" stroke="white">
      <rect x="-127" width="1436" height="904" y="96" clip-path="url(#clipPath2)" stroke="none"/>
    </g>
    <g fill="rgb(210,210,210)" text-rendering="geometricPrecision" shape-rendering="geometricPrecision" transform="matrix(1,0,0,1,127,-96) translate(4,4)" stroke="rgb(210,210,210)">
      <rect x="-112" width="257" height="151.666" y="111.917" clip-path="url(#clipPath3)" stroke="none"/>
    </g>
    <g fill="rgb(242,240,216)" text-rendering="geometricPrecision" shape-rendering="geometricPrecision" transform="matrix(1,0,0,1,127,-96)" stroke="rgb(242,240,216)">
      <rect x="-112" width="257" height="151.666" y="111.917" clip-path="url(#clipPath2)" stroke="none"/>
      <rect x="-112" y="111.917" clip-path="url(#clipPath2)" fill="rgb(183,182,158)" width="257" height="21.666" stroke="none"/>
    </g>
    <g font-size="15px" stroke-linecap="butt" transform="matrix(1,0,0,1,127,-96)" text-rendering="geometricPrecision" font-family="sans-serif" shape-rendering="geometricPrecision" stroke-miterlimit="1.45">
      <text x="-67.8423" xml:space="preserve" y="128.4189" clip-path="url(#clipPath2)" stroke="none">Rutgers Cyber-Infrastructure</text>
      <rect fill="none" x="-112" width="257" height="151.666" y="111.917" clip-path="url(#clipPath2)"/>
    </g>
    <g fill="url(#linearGradient1)" text-rendering="geometricPrecision" shape-rendering="geometricPrecision" transform="matrix(1,0,0,1,127,-96)" stroke="url(#linearGradient1)">
      <path d="M-47 187.25 C-43.37 172.25 70.37 172.25 74 187.25 L74 232.25 C70.37 247.25 -43.37 247.25 -47 232.25 Z" stroke="none" clip-path="url(#clipPath2)"/>
    </g>
    <g text-rendering="geometricPrecision" stroke-miterlimit="1.45" shape-rendering="geometricPrecision" transform="matrix(1,0,0,1,127,-96)" stroke-linecap="butt">
      <path fill="none" d="M-47 187.25 C-43.37 172.25 70.37 172.25 74 187.25 L74 232.25 C70.37 247.25 -43.37 247.25 -47 232.25 Z" clip-path="url(#clipPath2)"/>
      <path fill="none" d="M74 187.25 C70.37 202.25 -43.37 202.25 -47 187.25" clip-path="url(#clipPath2)"/>
      <text x="11.6016" xml:space="preserve" y="200.1523" clip-path="url(#clipPath2)" font-family="sans-serif" stroke="none"> </text>
      <text x="-8.4697" xml:space="preserve" y="214.2852" clip-path="url(#clipPath2)" font-family="sans-serif" stroke="none">CamHD</text>
      <text x="-2.6895" xml:space="preserve" y="228.418" clip-path="url(#clipPath2)" font-family="sans-serif" stroke="none"> .mov</text>
    </g>
    <g fill="rgb(210,210,210)" text-rendering="geometricPrecision" shape-rendering="geometricPrecision" transform="matrix(1,0,0,1,127,-96) translate(4,4)" stroke="rgb(210,210,210)">
      <rect x="183.5" width="565.9504" height="403.583" y="111.917" clip-path="url(#clipPath3)" stroke="none"/>
    </g>
    <g fill="rgb(242,240,216)" text-rendering="geometricPrecision" shape-rendering="geometricPrecision" transform="matrix(1,0,0,1,127,-96)" stroke="rgb(242,240,216)">
      <rect x="183.5" width="565.9504" height="403.583" y="111.917" clip-path="url(#clipPath2)" stroke="none"/>
      <rect x="183.5" y="111.917" clip-path="url(#clipPath2)" fill="rgb(183,182,158)" width="565.9504" height="21.666" stroke="none"/>
    </g>
    <g font-size="15px" stroke-linecap="butt" transform="matrix(1,0,0,1,127,-96)" text-rendering="geometricPrecision" font-family="sans-serif" shape-rendering="geometricPrecision" stroke-miterlimit="1.45">
      <text x="643.2488" xml:space="preserve" y="128.4189" clip-path="url(#clipPath2)" stroke="none">Docker Swarm</text>
      <rect fill="none" x="183.5" width="565.9504" height="403.583" y="111.917" clip-path="url(#clipPath2)"/>
    </g>
    <g transform="matrix(1,0,0,1,127,-96)" fill-opacity="0.5176" fill="rgb(182,216,235)" text-rendering="geometricPrecision" shape-rendering="geometricPrecision" stroke="rgb(182,216,235)" stroke-opacity="0.5176">
      <rect x="211.5" y="153.5" clip-path="url(#clipPath2)" width="323.5" rx="4" ry="4" height="343.5" stroke="none"/>
    </g>
    <g fill="rgb(153,204,255)" text-rendering="geometricPrecision" shape-rendering="geometricPrecision" transform="matrix(1,0,0,1,127,-96)" stroke="rgb(153,204,255)">
      <rect x="211.5" width="323.5" height="21.666" y="153.5" clip-path="url(#clipPath2)" stroke="none"/>
    </g>
    <g font-size="15px" stroke-linecap="butt" transform="matrix(1,0,0,1,127,-96)" text-rendering="geometricPrecision" font-family="sans-serif" shape-rendering="geometricPrecision" stroke-miterlimit="1.45">
      <text x="442.0991" xml:space="preserve" y="170.002" clip-path="url(#clipPath2)" stroke="none">Swarm Node</text>
    </g>
    <g stroke-linecap="round" transform="matrix(1,0,0,1,127,-96)" stroke-dashoffset="2" fill="rgb(102,102,153)" text-rendering="geometricPrecision" shape-rendering="geometricPrecision" stroke-dasharray="0,4" stroke="rgb(102,102,153)" stroke-miterlimit="1.45">
      <rect x="211.5" y="153.5" clip-path="url(#clipPath2)" fill="none" width="323.5" rx="4" ry="4" height="343.5"/>
    </g>
    <g fill="rgb(104,176,227)" text-rendering="geometricPrecision" shape-rendering="geometricPrecision" transform="matrix(1,0,0,1,127,-96)" stroke="rgb(104,176,227)">
      <path d="M265.5 365.3257 L265.5 466.9585 L464.75 466.9585 L464.75 365.3257 ZM266.5 387.3257 L266.5 465.9585 L463.75 465.9585 L463.75 387.3257 Z" fill-rule="evenodd" clip-path="url(#clipPath2)" stroke="none"/>
    </g>
    <g stroke-linecap="butt" transform="matrix(1,0,0,1,127,-96)" fill="white" text-rendering="geometricPrecision" font-family="sans-serif" shape-rendering="geometricPrecision" stroke="white" stroke-miterlimit="1.45">
      <text x="267.5" xml:space="preserve" y="378.9272" clip-path="url(#clipPath2)" stroke="none">frame stats</text>
    </g>
    <g fill="url(#linearGradient2)" text-rendering="geometricPrecision" shape-rendering="geometricPrecision" transform="matrix(1,0,0,1,127,-96)" stroke="url(#linearGradient2)">
      <path d="M296.75 398.4585 L449.75 398.4585 L449.75 451.9585 L296.75 451.9585 Z" stroke="none" clip-path="url(#clipPath2)"/>
    </g>
    <g text-rendering="geometricPrecision" stroke-miterlimit="1.45" shape-rendering="geometricPrecision" transform="matrix(1,0,0,1,127,-96)" stroke-linecap="butt">
      <path fill="none" d="M296.75 398.4585 L449.75 398.4585 L449.75 451.9585 L296.75 451.9585 Z" clip-path="url(#clipPath2)"/>
      <text x="303.7373" xml:space="preserve" y="429.7437" clip-path="url(#clipPath2)" font-family="sans-serif" stroke="none">CamHD motion analysis</text>
    </g>
    <g fill="rgb(104,176,227)" text-rendering="geometricPrecision" shape-rendering="geometricPrecision" transform="matrix(1,0,0,1,127,-96)" stroke="rgb(104,176,227)">
      <path d="M279.25 197.8672 L279.25 299.5 L462.25 299.5 L462.25 197.8672 ZM280.25 219.8672 L280.25 298.5 L461.25 298.5 L461.25 219.8672 Z" fill-rule="evenodd" clip-path="url(#clipPath2)" stroke="none"/>
    </g>
    <g stroke-linecap="butt" transform="matrix(1,0,0,1,127,-96)" fill="white" text-rendering="geometricPrecision" font-family="sans-serif" shape-rendering="geometricPrecision" stroke="white" stroke-miterlimit="1.45">
      <text x="281.25" xml:space="preserve" y="211.4688" clip-path="url(#clipPath2)" stroke="none">Lazycache</text>
    </g>
    <g fill="url(#linearGradient3)" text-rendering="geometricPrecision" shape-rendering="geometricPrecision" transform="matrix(1,0,0,1,127,-96)" stroke="url(#linearGradient3)">
      <path d="M294.25 231 L447.25 231 L447.25 284.5 L294.25 284.5 Z" stroke="none" clip-path="url(#clipPath2)"/>
    </g>
    <g text-rendering="geometricPrecision" stroke-miterlimit="1.45" shape-rendering="geometricPrecision" transform="matrix(1,0,0,1,127,-96)" stroke-linecap="butt">
      <path fill="none" d="M294.25 231 L447.25 231 L447.25 284.5 L294.25 284.5 Z" clip-path="url(#clipPath2)"/>
      <text x="341.1367" xml:space="preserve" y="262.2852" clip-path="url(#clipPath2)" font-family="sans-serif" stroke="none">Lazycache</text>
    </g>
    <g text-rendering="geometricPrecision" stroke-miterlimit="1.45" shape-rendering="geometricPrecision" transform="matrix(1,0,0,1,127,-96)" stroke-linecap="butt">
      <path fill="none" d="M73.9865 217.877 L286.3481 246.4098" clip-path="url(#clipPath2)"/>
      <path d="M294.2769 247.4751 L283.0496 240.9217 L285.357 246.2766 L281.7179 250.8326 Z" clip-path="url(#clipPath2)" stroke="none"/>
      <text x="224.8592" xml:space="preserve" y="275.0104" clip-path="url(#clipPath2)" font-family="sans-serif" stroke="none">HTTP</text>
      <path fill="none" d="M371.1498 284.5287 L372.7311 390.4541" clip-path="url(#clipPath2)"/>
      <path d="M372.8506 398.4532 L377.6709 386.3799 L372.7162 389.4542 L367.672 386.5292 Z" clip-path="url(#clipPath2)" stroke="none"/>
      <text x="367.6616" xml:space="preserve" y="346.0144" clip-path="url(#clipPath2)" font-family="sans-serif" stroke="none">HTTP / PNG</text>
    </g>
    <g transform="matrix(1,0,0,1,127,-96)" fill-opacity="0.5176" fill="rgb(182,216,235)" text-rendering="geometricPrecision" shape-rendering="geometricPrecision" stroke="rgb(182,216,235)" stroke-opacity="0.5176">
      <rect x="565" y="168.0425" clip-path="url(#clipPath2)" width="153" rx="4" ry="4" height="65" stroke="none"/>
    </g>
    <g fill="rgb(153,204,255)" text-rendering="geometricPrecision" shape-rendering="geometricPrecision" transform="matrix(1,0,0,1,127,-96)" stroke="rgb(153,204,255)">
      <rect x="565" width="153" height="21.666" y="168.0425" clip-path="url(#clipPath2)" stroke="none"/>
    </g>
    <g font-size="15px" stroke-linecap="butt" transform="matrix(1,0,0,1,127,-96)" text-rendering="geometricPrecision" font-family="sans-serif" shape-rendering="geometricPrecision" stroke-miterlimit="1.45">
      <text x="625.0991" xml:space="preserve" y="184.5444" clip-path="url(#clipPath2)" stroke="none">Swarm Node</text>
    </g>
    <g stroke-linecap="round" transform="matrix(1,0,0,1,127,-96)" stroke-dashoffset="2" fill="rgb(102,102,153)" text-rendering="geometricPrecision" shape-rendering="geometricPrecision" stroke-dasharray="0,4" stroke="rgb(102,102,153)" stroke-miterlimit="1.45">
      <rect x="565" y="168.0425" clip-path="url(#clipPath2)" fill="none" width="153" rx="4" ry="4" height="65"/>
    </g>
    <g transform="matrix(1,0,0,1,127,-96)" fill-opacity="0.5176" fill="rgb(182,216,235)" text-rendering="geometricPrecision" shape-rendering="geometricPrecision" stroke="rgb(182,216,235)" stroke-opacity="0.5176">
      <rect x="565" y="241.2925" clip-path="url(#clipPath2)" width="153" rx="4" ry="4" height="65" stroke="none"/>
    </g>
    <g fill="rgb(153,204,255)" text-rendering="geometricPrecision" shape-rendering="geometricPrecision" transform="matrix(1,0,0,1,127,-96)" stroke="rgb(153,204,255)">
      <rect x="565" width="153" height="21.666" y="241.2925" clip-path="url(#clipPath2)" stroke="none"/>
    </g>
    <g font-size="15px" stroke-linecap="butt" transform="matrix(1,0,0,1,127,-96)" text-rendering="geometricPrecision" font-family="sans-serif" shape-rendering="geometricPrecision" stroke-miterlimit="1.45">
      <text x="625.0991" xml:space="preserve" y="257.7944" clip-path="url(#clipPath2)" stroke="none">Swarm Node</text>
    </g>
    <g stroke-linecap="round" transform="matrix(1,0,0,1,127,-96)" stroke-dashoffset="2" fill="rgb(102,102,153)" text-rendering="geometricPrecision" shape-rendering="geometricPrecision" stroke-dasharray="0,4" stroke="rgb(102,102,153)" stroke-miterlimit="1.45">
      <rect x="565" y="241.2925" clip-path="url(#clipPath2)" fill="none" width="153" rx="4" ry="4" height="65"/>
    </g>
    <g transform="matrix(1,0,0,1,127,-96)" fill-opacity="0.5176" fill="rgb(182,216,235)" text-rendering="geometricPrecision" shape-rendering="geometricPrecision" stroke="rgb(182,216,235)" stroke-opacity="0.5176">
      <rect x="565" y="327.251" clip-path="url(#clipPath2)" width="153" rx="4" ry="4" height="65" stroke="none"/>
    </g>
    <g fill="rgb(153,204,255)" text-rendering="geometricPrecision" shape-rendering="geometricPrecision" transform="matrix(1,0,0,1,127,-96)" stroke="rgb(153,204,255)">
      <rect x="565" width="153" height="21.666" y="327.251" clip-path="url(#clipPath2)" stroke="none"/>
    </g>
    <g font-size="15px" stroke-linecap="butt" transform="matrix(1,0,0,1,127,-96)" text-rendering="geometricPrecision" font-family="sans-serif" shape-rendering="geometricPrecision" stroke-miterlimit="1.45">
      <text x="625.0991" xml:space="preserve" y="343.7529" clip-path="url(#clipPath2)" stroke="none">Swarm Node</text>
    </g>
    <g stroke-linecap="round" transform="matrix(1,0,0,1,127,-96)" stroke-dashoffset="2" fill="rgb(102,102,153)" text-rendering="geometricPrecision" shape-rendering="geometricPrecision" stroke-dasharray="0,4" stroke="rgb(102,102,153)" stroke-miterlimit="1.45">
      <rect x="565" y="327.251" clip-path="url(#clipPath2)" fill="none" width="153" rx="4" ry="4" height="65"/>
    </g>
    <g transform="matrix(1,0,0,1,127,-96)" fill-opacity="0.5176" fill="rgb(182,216,235)" text-rendering="geometricPrecision" shape-rendering="geometricPrecision" stroke="rgb(182,216,235)" stroke-opacity="0.5176">
      <rect x="565" y="407.251" clip-path="url(#clipPath2)" width="153" rx="4" ry="4" height="65" stroke="none"/>
    </g>
    <g fill="rgb(153,204,255)" text-rendering="geometricPrecision" shape-rendering="geometricPrecision" transform="matrix(1,0,0,1,127,-96)" stroke="rgb(153,204,255)">
      <rect x="565" width="153" height="21.666" y="407.251" clip-path="url(#clipPath2)" stroke="none"/>
    </g>
    <g font-size="15px" stroke-linecap="butt" transform="matrix(1,0,0,1,127,-96)" text-rendering="geometricPrecision" font-family="sans-serif" shape-rendering="geometricPrecision" stroke-miterlimit="1.45">
      <text x="625.0991" xml:space="preserve" y="423.7529" clip-path="url(#clipPath2)" stroke="none">Swarm Node</text>
    </g>
    <g stroke-linecap="round" transform="matrix(1,0,0,1,127,-96)" stroke-dashoffset="2" fill="rgb(102,102,153)" text-rendering="geometricPrecision" shape-rendering="geometricPrecision" stroke-dasharray="0,4" stroke="rgb(102,102,153)" stroke-miterlimit="1.45">
      <rect x="565" y="407.251" clip-path="url(#clipPath2)" fill="none" width="153" rx="4" ry="4" height="65"/>
    </g>
    <g fill="rgb(210,210,210)" text-rendering="geometricPrecision" shape-rendering="geometricPrecision" transform="matrix(1,0,0,1,127,-96) translate(4,4)" stroke="rgb(210,210,210)">
      <rect x="183.5" width="1105.9504" height="141.332" y="545.5" clip-path="url(#clipPath3)" stroke="none"/>
    </g>
    <g fill="rgb(242,240,216)" text-rendering="geometricPrecision" shape-rendering="geometricPrecision" transform="matrix(1,0,0,1,127,-96)" stroke="rgb(242,240,216)">
      <rect x="183.5" width="1105.9504" height="141.332" y="545.5" clip-path="url(#clipPath2)" stroke="none"/>
      <rect x="183.5" y="545.5" clip-path="url(#clipPath2)" fill="rgb(183,182,158)" width="1105.9504" height="21.666" stroke="none"/>
    </g>
    <g font-size="15px" stroke-linecap="butt" transform="matrix(1,0,0,1,127,-96)" text-rendering="geometricPrecision" font-family="sans-serif" shape-rendering="geometricPrecision" stroke-miterlimit="1.45">
      <text x="1238.6052" xml:space="preserve" y="562.002" clip-path="url(#clipPath2)" stroke="none">Github</text>
      <rect fill="none" x="183.5" width="1105.9504" height="141.332" y="545.5" clip-path="url(#clipPath2)"/>
    </g>
    <g fill="url(#linearGradient4)" text-rendering="geometricPrecision" shape-rendering="geometricPrecision" transform="matrix(1,0,0,1,127,-96)" stroke="url(#linearGradient4)">
      <path d="M628.1425 593.166 L735.5 593.166 L721.8575 646.666 L614.5 646.666 Z" stroke="none" clip-path="url(#clipPath2)"/>
    </g>
    <g text-rendering="geometricPrecision" stroke-miterlimit="1.45" shape-rendering="geometricPrecision" transform="matrix(1,0,0,1,127,-96)" stroke-linecap="butt">
      <path fill="none" d="M628.1425 593.166 L735.5 593.166 L721.8575 646.666 L614.5 646.666 Z" clip-path="url(#clipPath2)"/>
      <text x="639.3047" xml:space="preserve" y="617.3848" clip-path="url(#clipPath2)" font-family="sans-serif" stroke="none">Optical Flow</text>
      <text x="660.8086" xml:space="preserve" y="631.5176" clip-path="url(#clipPath2)" font-family="sans-serif" stroke="none">.json</text>
    </g>
    <g fill="url(#linearGradient5)" text-rendering="geometricPrecision" shape-rendering="geometricPrecision" transform="matrix(1,0,0,1,127,-96)" stroke="url(#linearGradient5)">
      <path d="M984.093 593.166 L1091.4504 593.166 L1077.808 646.666 L970.4504 646.666 Z" stroke="none" clip-path="url(#clipPath2)"/>
    </g>
    <g text-rendering="geometricPrecision" stroke-miterlimit="1.45" shape-rendering="geometricPrecision" transform="matrix(1,0,0,1,127,-96)" stroke-linecap="butt">
      <path fill="none" d="M984.093 593.166 L1091.4504 593.166 L1077.808 646.666 L970.4504 646.666 Z" clip-path="url(#clipPath2)"/>
      <text x="1007.8704" xml:space="preserve" y="617.3848" clip-path="url(#clipPath2)" font-family="sans-serif" stroke="none">Regions</text>
      <text x="1016.759" xml:space="preserve" y="631.5176" clip-path="url(#clipPath2)" font-family="sans-serif" stroke="none">.json</text>
    </g>
    <g fill="url(#linearGradient6)" text-rendering="geometricPrecision" shape-rendering="geometricPrecision" transform="matrix(1,0,0,1,127,-96)" stroke="url(#linearGradient6)">
      <path d="M1161.5433 593.166 L1268.9009 593.166 L1255.2584 646.666 L1147.9009 646.666 Z" stroke="none" clip-path="url(#clipPath2)"/>
    </g>
    <g text-rendering="geometricPrecision" stroke-miterlimit="1.45" shape-rendering="geometricPrecision" transform="matrix(1,0,0,1,127,-96)" stroke-linecap="butt">
      <path fill="none" d="M1161.5433 593.166 L1268.9009 593.166 L1255.2584 646.666 L1147.9009 646.666 Z" clip-path="url(#clipPath2)"/>
      <text x="1171.686" xml:space="preserve" y="624.4512" clip-path="url(#clipPath2)" font-family="sans-serif" stroke="none">datapackage</text>
    </g>
    <g fill="url(#linearGradient7)" text-rendering="geometricPrecision" shape-rendering="geometricPrecision" transform="matrix(1,0,0,1,127,-96)" stroke="url(#linearGradient7)">
      <path d="M-60 410.3085 C-55.59 398.4585 82.59 398.4585 87 410.3085 L87 445.8585 C82.59 457.7085 -55.59 457.7085 -60 445.8585 Z" stroke="none" clip-path="url(#clipPath2)"/>
    </g>
    <g text-rendering="geometricPrecision" stroke-miterlimit="1.45" shape-rendering="geometricPrecision" transform="matrix(1,0,0,1,127,-96)" stroke-linecap="butt">
      <path fill="none" d="M-60 410.3085 C-55.59 398.4585 82.59 398.4585 87 410.3085 L87 445.8585 C82.59 457.7085 -55.59 457.7085 -60 445.8585 Z" clip-path="url(#clipPath2)"/>
      <path fill="none" d="M87 410.3085 C82.59 422.1585 -55.59 422.1585 -60 410.3085" clip-path="url(#clipPath2)"/>
      <text x="-30.9609" xml:space="preserve" y="432.6187" clip-path="url(#clipPath2)" font-family="sans-serif" stroke="none">Redis Database</text>
    </g>
    <g fill="url(#linearGradient8)" text-rendering="geometricPrecision" shape-rendering="geometricPrecision" transform="matrix(1,0,0,1,127,-96)" stroke="url(#linearGradient8)">
      <path d="M-60 304.2708 L93 304.2708 L93 357.7708 L-60 357.7708 Z" stroke="none" clip-path="url(#clipPath2)"/>
    </g>
    <g text-rendering="geometricPrecision" stroke-miterlimit="1.45" shape-rendering="geometricPrecision" transform="matrix(1,0,0,1,127,-96)" stroke-linecap="butt">
      <path fill="none" d="M-60 304.2708 L93 304.2708 L93 357.7708 L-60 357.7708 Z" clip-path="url(#clipPath2)"/>
      <text x="-5.584" xml:space="preserve" y="335.5559" clip-path="url(#clipPath2)" font-family="sans-serif" stroke="none">injector</text>
    </g>
    <g text-rendering="geometricPrecision" stroke-miterlimit="1.45" shape-rendering="geometricPrecision" transform="matrix(1,0,0,1,127,-96)" stroke-linecap="butt">
      <path fill="none" d="M414.6891 451.9475 L626.8099 588.8209" clip-path="url(#clipPath2)"/>
      <path d="M633.532 593.1583 L626.1598 582.4508 L625.9697 588.2787 L620.738 590.8534 Z" clip-path="url(#clipPath2)" stroke="none"/>
      <path fill="none" d="M296.7065 425.8202 L95.0325 427.4319" clip-path="url(#clipPath2)"/>
      <path d="M87.0327 427.4958 L99.0723 432.3998 L96.0325 427.4239 L98.9924 422.4001 Z" clip-path="url(#clipPath2)" stroke="none"/>
      <path fill="none" d="M14.3342 243.4725 L15.6412 296.3056" clip-path="url(#clipPath2)"/>
      <path d="M15.8391 304.3032 L20.5408 292.1832 L15.6165 295.3059 L10.5438 292.4305 Z" clip-path="url(#clipPath2)" stroke="none"/>
      <path fill="none" d="M15.6724 357.7983 L14.5713 393.4215" clip-path="url(#clipPath2)"/>
      <path d="M14.3242 401.4177 L19.6925 389.5779 L14.6022 392.422 L9.6973 389.269 Z" clip-path="url(#clipPath2)" stroke="none"/>
    </g>
    <g fill="rgb(210,210,210)" text-rendering="geometricPrecision" shape-rendering="geometricPrecision" transform="matrix(1,0,0,1,127,-96) translate(4,4)" stroke="rgb(210,210,210)">
      <rect x="813.1487" width="443.8513" height="128.2075" y="361.7925" clip-path="url(#clipPath3)" stroke="none"/>
    </g>
    <g fill="rgb(242,240,216)" text-rendering="geometricPrecision" shape-rendering="geometricPrecision" transform="matrix(1,0,0,1,127,-96)" stroke="rgb(242,240,216)">
      <rect x="813.1487" width="443.8513" height="128.2075" y="361.7925" clip-path="url(#clipPath2)" stroke="none"/>
      <rect x="813.1487" y="361.7925" clip-path="url(#clipPath2)" fill="rgb(183,182,158)" width="443.8513" height="21.666" stroke="none"/>
    </g>
    <g font-size="15px" stroke-linecap="butt" transform="matrix(1,0,0,1,127,-96)" text-rendering="geometricPrecision" font-family="sans-serif" shape-rendering="geometricPrecision" stroke-miterlimit="1.45">
      <text x="1101.521" xml:space="preserve" y="378.2944" clip-path="url(#clipPath2)" stroke="none">Static region analysis</text>
      <rect fill="none" x="813.1487" width="443.8513" height="128.2075" y="361.7925" clip-path="url(#clipPath2)"/>
    </g>
    <g fill="url(#linearGradient9)" text-rendering="geometricPrecision" shape-rendering="geometricPrecision" transform="matrix(1,0,0,1,127,-96)" stroke="url(#linearGradient9)">
      <path d="M1041.5 420.5 L1194.5 420.5 L1194.5 474 L1041.5 474 Z" stroke="none" clip-path="url(#clipPath2)"/>
    </g>
    <g text-rendering="geometricPrecision" stroke-miterlimit="1.45" shape-rendering="geometricPrecision" transform="matrix(1,0,0,1,127,-96)" stroke-linecap="butt">
      <path fill="none" d="M1041.5 420.5 L1194.5 420.5 L1194.5 474 L1041.5 474 Z" clip-path="url(#clipPath2)"/>
      <text x="1075.4258" xml:space="preserve" y="451.7852" clip-path="url(#clipPath2)" font-family="sans-serif" stroke="none">Static labelling</text>
    </g>
    <g fill="url(#linearGradient10)" text-rendering="geometricPrecision" shape-rendering="geometricPrecision" transform="matrix(1,0,0,1,127,-96)" stroke="url(#linearGradient10)">
      <path d="M888.5 420.5 L1041.5 420.5 L1041.5 474 L888.5 474 Z" stroke="none" clip-path="url(#clipPath2)"/>
    </g>
    <g text-rendering="geometricPrecision" stroke-miterlimit="1.45" shape-rendering="geometricPrecision" transform="matrix(1,0,0,1,127,-96)" stroke-linecap="butt">
      <path fill="none" d="M888.5 420.5 L1041.5 420.5 L1041.5 474 L888.5 474 Z" clip-path="url(#clipPath2)"/>
      <text x="909.4414" xml:space="preserve" y="451.7852" clip-path="url(#clipPath2)" font-family="sans-serif" stroke="none">Static region finder</text>
    </g>
    <g text-rendering="geometricPrecision" stroke-miterlimit="1.45" shape-rendering="geometricPrecision" transform="matrix(1,0,0,1,127,-96)" stroke-linecap="butt">
      <path fill="none" d="M1039.4998 593.136 L1075.0979 481.6267" clip-path="url(#clipPath2)"/>
      <path d="M1077.5309 474.0056 L1069.1183 483.9166 L1074.7938 482.5793 L1078.6445 486.9579 Z" clip-path="url(#clipPath2)" stroke="none"/>
      <path fill="none" d="M1109.9697 474.0109 L1076.5123 585.5078" clip-path="url(#clipPath2)"/>
      <path d="M1074.213 593.1703 L1082.451 583.1137 L1076.7998 584.55 L1072.8729 580.2396 Z" clip-path="url(#clipPath2)" stroke="none"/>
      <path fill="none" d="M719.9231 593.1688 L913.2213 478.079" clip-path="url(#clipPath2)"/>
      <path d="M920.0952 473.9863 L907.2264 475.8293 L912.3621 478.5906 L912.3423 484.4215 Z" clip-path="url(#clipPath2)" stroke="none"/>
      <path fill="none" d="M975.2242 474.0183 L1017.8785 585.6923" clip-path="url(#clipPath2)"/>
      <path d="M1020.7331 593.1657 L1021.1221 580.1715 L1017.5217 584.7582 L1011.7804 583.7397 Z" clip-path="url(#clipPath2)" stroke="none"/>
    </g>
    <g fill="rgb(210,210,210)" text-rendering="geometricPrecision" shape-rendering="geometricPrecision" transform="matrix(1,0,0,1,127,-96) translate(4,4)" stroke="rgb(210,210,210)">
      <rect x="820.9504" width="454.0496" height="151.666" y="732.166" clip-path="url(#clipPath3)" stroke="none"/>
    </g>
    <g fill="rgb(242,240,216)" text-rendering="geometricPrecision" shape-rendering="geometricPrecision" transform="matrix(1,0,0,1,127,-96)" stroke="rgb(242,240,216)">
      <rect x="820.9504" width="454.0496" height="151.666" y="732.166" clip-path="url(#clipPath2)" stroke="none"/>
      <rect x="820.9504" y="732.166" clip-path="url(#clipPath2)" fill="rgb(183,182,158)" width="454.0496" height="21.666" stroke="none"/>
    </g>
    <g font-size="15px" stroke-linecap="butt" transform="matrix(1,0,0,1,127,-96)" text-rendering="geometricPrecision" font-family="sans-serif" shape-rendering="geometricPrecision" stroke-miterlimit="1.45">
      <text x="1158.3687" xml:space="preserve" y="748.668" clip-path="url(#clipPath2)" stroke="none">Post processing</text>
      <rect fill="none" x="820.9504" width="454.0496" height="151.666" y="732.166" clip-path="url(#clipPath2)"/>
    </g>
    <g fill="url(#linearGradient11)" text-rendering="geometricPrecision" shape-rendering="geometricPrecision" transform="matrix(1,0,0,1,127,-96)" stroke="url(#linearGradient11)">
      <path d="M1093 782.415 L1246 782.415 L1246 835.915 L1093 835.915 Z" stroke="none" clip-path="url(#clipPath2)"/>
    </g>
    <g text-rendering="geometricPrecision" stroke-miterlimit="1.45" shape-rendering="geometricPrecision" transform="matrix(1,0,0,1,127,-96)" stroke-linecap="butt">
      <path fill="none" d="M1093 782.415 L1246 782.415 L1246 835.915 L1093 835.915 Z" clip-path="url(#clipPath2)"/>
      <text x="1099.1143" xml:space="preserve" y="813.7002" clip-path="url(#clipPath2)" font-family="sans-serif" stroke="none">regions_to_datapackage</text>
    </g>
    <g fill="url(#linearGradient12)" text-rendering="geometricPrecision" shape-rendering="geometricPrecision" transform="matrix(1,0,0,1,127,-96)" stroke="url(#linearGradient12)">
      <path d="M868 782.415 L1021 782.415 L1021 835.915 L868 835.915 Z" stroke="none" clip-path="url(#clipPath2)"/>
    </g>
    <g text-rendering="geometricPrecision" stroke-miterlimit="1.45" shape-rendering="geometricPrecision" transform="matrix(1,0,0,1,127,-96)" stroke-linecap="butt">
      <path fill="none" d="M868 782.415 L1021 782.415 L1021 835.915 L868 835.915 Z" clip-path="url(#clipPath2)"/>
      <text x="891.2148" xml:space="preserve" y="813.7002" clip-path="url(#clipPath2)" font-family="sans-serif" stroke="none">make_proof_sheet</text>
    </g>
    <g fill="url(#linearGradient13)" text-rendering="geometricPrecision" shape-rendering="geometricPrecision" transform="matrix(1,0,0,1,127,-96)" stroke="url(#linearGradient13)">
      <path d="M897.6425 931.498 L1005 931.498 L991.3575 984.998 L884 984.998 Z" stroke="none" clip-path="url(#clipPath2)"/>
    </g>
    <g text-rendering="geometricPrecision" stroke-miterlimit="1.45" shape-rendering="geometricPrecision" transform="matrix(1,0,0,1,127,-96)" stroke-linecap="butt">
      <path fill="none" d="M897.6425 931.498 L1005 931.498 L991.3575 984.998 L884 984.998 Z" clip-path="url(#clipPath2)"/>
      <text x="893.0723" xml:space="preserve" y="962.7832" clip-path="url(#clipPath2)" font-family="sans-serif" stroke="none">Proof sheet HTML</text>
    </g>
    <g text-rendering="geometricPrecision" stroke-miterlimit="1.45" shape-rendering="geometricPrecision" transform="matrix(1,0,0,1,127,-96)" stroke-linecap="butt">
      <path fill="none" d="M1050.5186 646.6447 L1145.1667 775.9275" clip-path="url(#clipPath2)"/>
      <path d="M1149.8925 782.3825 L1146.8383 769.7464 L1144.576 775.1206 L1138.7695 775.6535 Z" clip-path="url(#clipPath2)" stroke="none"/>
      <path fill="none" d="M1174.9989 782.4133 L1201.2856 654.5309" clip-path="url(#clipPath2)"/>
      <path d="M1202.8964 646.6947 L1195.5826 657.4423 L1201.0844 655.5104 L1205.3779 659.4557 Z" clip-path="url(#clipPath2)" stroke="none"/>
      <path fill="none" d="M1018.7406 646.6447 L960.0585 775.1058" clip-path="url(#clipPath2)"/>
      <path d="M956.7345 782.3825 L966.2685 773.5449 L960.4741 774.1962 L957.1726 769.3899 Z" clip-path="url(#clipPath2)" stroke="none"/>
      <path fill="none" d="M944.5 835.917 L944.5 923.518" clip-path="url(#clipPath2)"/>
      <path d="M944.5 931.518 L949.5 919.518 L944.5 922.518 L939.5 919.518 Z" clip-path="url(#clipPath2)" stroke="none"/>
    </g>
  </g>
</svg>
